<svg width="59" height="60" viewBox="0 0 59 60" fill="none" xmlns="http://www.w3.org/2000/svg">
<path d="M36.9429 10.7163H36.9347V10.736H36.9429V10.7163Z" fill="#589AAF"/>
<path d="M50.5339 8.91504H45.0803V14.3228H50.5339V8.91504Z" fill="#589AAF"/>
<path d="M58.4554 14.1909H53.0017V19.5987H58.4554V14.1909Z" fill="#589AAF"/>
<path d="M54.2423 43.5249H48.7887V48.9327H54.2423V43.5249Z" fill="#589AAF"/>
<path d="M50.3838 33.0137H44.9301V38.4215H50.3838V33.0137Z" fill="#589AAF"/>
<path d="M45.15 40.1382H39.6964V45.546H45.15V40.1382Z" fill="#589AAF"/>
<path d="M43.7087 5.021H38.2551V10.4288H43.7087V5.021Z" fill="#589AAF"/>
<path d="M50.8713 20.6338H45.4177V26.0416H50.8713V20.6338Z" fill="#589AAF"/>
<path d="M44.3415 25.8164H38.8879V31.2242H44.3415V25.8164Z" fill="#589AAF"/>
<path d="M38.526 37.785V32.374L33.067 32.3782V37.785H38.526Z" fill="#589AAF"/>
<path d="M45.1085 58.4025C44.1358 55.201 43.4506 51.9204 43.061 48.5991H36.923V43.194H31.4704V37.7862H26.0168V32.3784H31.4704V26.922H36.9288V21.539H42.3803V16.1301L36.9347 16.1243V10.7376L31.4667 10.7345V5.32562L36.9267 5.31243V1.47941C34.3197 0.643045 31.6111 0.158447 28.8737 0.0386704C15.4997 -0.647398 4.04586 7.87041 4.41469 19.618C4.46312 21.1685 4.73668 23.4521 4.73029 24.944C4.71805 30.2436 0.093623 32.4206 0.00474285 34.1072C-0.141617 36.8769 3.1395 36.0119 4.29653 39.9299C5.76545 44.9039 3.65788 50.5761 10.4958 50.2256C13.2234 50.1169 17.6562 49.0672 19.5557 50.8188C20.767 51.9355 21.7426 56.8098 22.1231 58.9667C22.1745 59.2566 22.3275 59.5192 22.555 59.7082C22.7825 59.8973 23.0701 60.0006 23.3669 60H43.8939C44.0897 60.0005 44.2829 59.9558 44.4582 59.8694C44.6336 59.7831 44.7862 59.6574 44.904 59.5024C45.0219 59.3474 45.1017 59.1673 45.1372 58.9764C45.1727 58.7855 45.1628 58.589 45.1085 58.4025ZM20.9192 16.147H15.4656V10.7376H20.9192V16.147ZM26.3691 12.8053H31.8228V18.2132H26.3691V12.8053ZM22.2886 25.5145V20.1062H27.7423V25.5145H22.2886ZM29.1622 49.8789H23.7086V44.47H29.1622V49.8789Z" fill="#589AAF"/>
</svg>
